# File produced by Open Asset Import Library (http://www.assimp.sf.net)
# (assimp v5.0.0)

mtllib result.mtl

# 16 vertex positions
v  0.98425198 0.98425198 0
v  0.98425198 0.98425198 1.968504
v  0.98425198 -0.98425198 0
v  0.98425198 -0.98425198 1.968504
v  0.9055118 0.98425198 0.078740157
v  -0.98425198 0.98425198 0
v  -0.9055118 0.98425198 0.078740157
v  -0.98425198 0.98425198 1.968504
v  -0.9055118 0.98425198 1.968504
v  0.9055118 0.98425198 1.968504
v  -0.98425198 -0.98425198 0
v  -0.98425198 -0.98425198 1.968504
v  -0.9055118 -0.9055118 0.078740157
v  0.9055118 -0.9055118 0.078740157
v  0.9055118 -0.9055118 1.968504
v  -0.9055118 -0.9055118 1.968504

# 31 UV coordinates
vt 0.2 0 0
vt -4.8000002 0 0
vt 0.2 -5 0
vt -4.8000002 -5 0
vt 4.8000002 5 0
vt -0.2 5 0
vt -0 4.8000002 0
vt -0.2 0 0
vt -0 0.2 0
vt 4.8000002 0 0
vt 4.8000002 0.2 0
vt 4.8000002 4.8000002 0
vt -0.2 -5 0
vt 4.8000002 -5 0
vt 0.2 5 0
vt -4.8000002 5 0
vt -2.3 -2.3 0
vt 2.3 -2.3 0
vt -2.3 2.5 0
vt 2.3 2.5 0
vt -2.5 -2.5 0
vt 2.5 -2.5 0
vt -2.5 2.5 0
vt 2.5 2.5 0
vt -0 0 0
vt -4.8000002 4.8000002 0
vt -4.8000002 4.5999999 0
vt -0 4.5999999 0
vt 4.8000002 -3.2098833e-32 0
vt 4.8000002 -4.8000002 0
vt -0 -4.8000002 0

# 8 vertex normals
vn 2.54 3.5249583e-16 0
vn 0 2.54 0
vn -2.54 -3.5249583e-16 0
vn 0 -2.54 0
vn 0 0 2.54
vn 0 0 -2.54
vn -2.54 0 0
vn 2.54 1.8359159e-16 0

# Mesh '보스-돌출2' with 28 faces
g 보스-돌출2
usemtl Material #25
f  1/1/1 2/2/1 3/3/1
f  3/3/1 2/2/1 4/4/1
f  2/5/2 1/6/2 5/7/2
f  5/7/2 1/6/2 6/8/2
f  5/7/2 6/8/2 7/9/2
f  7/9/2 6/8/2 8/10/2
f  7/9/2 8/10/2 9/11/2
f  5/7/2 10/12/2 2/5/2
f  11/13/3 12/14/3 6/8/3
f  6/8/3 12/14/3 8/10/3
f  3/15/4 4/16/4 11/1/4
f  11/1/4 4/16/4 12/2/4
f  13/17/5 14/18/5 7/19/5
f  7/19/5 14/18/5 5/20/5
f  3/21/6 11/22/6 1/23/6
f  1/23/6 11/22/6 6/24/6
f  14/2/7 15/25/7 5/26/7
f  5/26/7 15/25/7 10/7/7
f  13/2/2 16/25/2 14/27/2
f  14/27/2 16/25/2 15/28/2
f  7/29/8 9/25/8 13/30/8
f  13/30/8 9/25/8 16/31/8
f  9/19/5 8/23/5 16/17/5
f  16/17/5 8/23/5 12/21/5
f  16/17/5 12/21/5 4/22/5
f  16/17/5 4/22/5 15/18/5
f  15/18/5 4/22/5 2/24/5
f  15/18/5 2/24/5 10/20/5

