# File produced by Open Asset Import Library (http://www.assimp.sf.net)
# (assimp v5.0.0)

mtllib result.mtl

# 18 vertex positions
v  0.98425198 0.98425198 0
v  0.98425198 0.98425198 1.968504
v  0.98425198 -0.98425198 0
v  0.98425198 -0.98425198 1.968504
v  -0.98425198 0.98425198 1.968504
v  0.9055118 0.98425198 1.8897638
v  0.9055118 0.98425198 0.078740157
v  -0.98425198 0.98425198 0
v  -0.9055118 0.98425198 0.078740157
v  -0.9055118 0.98425198 1.8897638
v  -0.98425198 -0.98425198 0
v  -0.98425198 -0.98425198 1.968504
v  -0.9055118 -0.9055118 0.078740157
v  -0.11811024 -0.9055118 0.078740157
v  0.9055118 0.5905512 0.078740157
v  0.9055118 0.5905512 1.8897638
v  -0.11811024 -0.9055118 1.8897638
v  -0.9055118 -0.9055118 1.8897638

# 39 UV coordinates
vt 0.2 0 0
vt -4.8000002 0 0
vt 0.2 -5 0
vt -4.8000002 -5 0
vt 4.8000002 0 0
vt 4.8000002 5 0
vt 4.5999999 4.8000002 0
vt -0.2 5 0
vt -0 4.8000002 0
vt -0.2 0 0
vt -0 0.2 0
vt 4.5999999 0.2 0
vt -0.2 -5 0
vt 4.8000002 -5 0
vt 0.2 5 0
vt -4.8000002 5 0
vt -2.3 -2.3 0
vt -0.30000001 -2.3 0
vt -2.3 2.5 0
vt 2.3 1.5 0
vt 2.3 2.5 0
vt -2.5 -2.5 0
vt 2.5 -2.5 0
vt -2.5 2.5 0
vt 2.5 2.5 0
vt -0.2 -2.220446e-16 0
vt -4.8000002 1 0
vt -0.2 1 0
vt -0.2 3.6651007e-16 0
vt -4.8000002 4.6043458 0
vt -0.2 4.6043458 0
vt -4.8000002 2 0
vt -0.2 2 0
vt 4.8000002 -6.4197667e-32 0
vt 4.8000002 -4.8000002 0
vt 0.2 -4.8000002 0
vt 0.2 -1 0
vt 4.8000002 -4.4408921e-16 0
vt 2.8 -4.8000002 0

# 10 vertex normals
vn 2.54 1.7624792e-16 0
vn 0 2.54 0
vn -2.54 -3.5249583e-16 0
vn 0 -2.54 0
vn 0 0 2.54
vn 0 0 -2.54
vn -2.54 0 0
vn -2.0962803 1.4342972 0
vn 2.54 3.6718314e-16 0
vn -5.30801e-32 3.6718314e-16 -2.54

# Mesh '보스-돌출3' with 32 faces
g 보스-돌출3
usemtl Material #25
f  1/1/1 2/2/1 3/3/1
f  3/3/1 2/2/1 4/4/1
f  5/5/2 2/6/2 6/7/2
f  6/7/2 2/6/2 1/8/2
f  6/7/2 1/8/2 7/9/2
f  7/9/2 1/8/2 8/10/2
f  7/9/2 8/10/2 9/11/2
f  9/11/2 8/10/2 5/5/2
f  9/11/2 5/5/2 10/12/2
f  10/12/2 5/5/2 6/7/2
f  11/13/3 12/14/3 8/10/3
f  8/10/3 12/14/3 5/5/3
f  3/15/4 4/16/4 11/1/4
f  11/1/4 4/16/4 12/2/4
f  13/17/5 14/18/5 9/19/5
f  9/19/5 14/18/5 15/20/5
f  9/19/5 15/20/5 7/21/5
f  3/22/6 11/23/6 1/24/6
f  1/24/6 11/23/6 8/25/6
f  15/2/7 16/26/7 7/27/7
f  7/27/7 16/26/7 6/28/7
f  14/2/8 17/29/8 15/30/8
f  15/30/8 17/29/8 16/31/8
f  13/2/2 18/10/2 14/32/2
f  14/32/2 18/10/2 17/33/2
f  9/34/9 10/1/9 13/35/9
f  13/35/9 10/1/9 18/36/9
f  2/25/5 5/24/5 4/23/5
f  4/23/5 5/24/5 12/22/5
f  6/1/10 16/37/10 10/38/10
f  10/38/10 16/37/10 17/39/10
f  10/38/10 17/39/10 18/35/10

