# File produced by Open Asset Import Library (http://www.assimp.sf.net)
# (assimp v5.0.0)

mtllib result.mtl

# 18 vertex positions
v  0.98425198 0.98425198 0
v  0.98425198 0.98425198 1.968504
v  0.98425198 -0.98425198 0
v  0.98425198 -0.98425198 1.968504
v  0.9055118 0.98425198 0.078740157
v  -0.98425198 0.98425198 0
v  -0.9055118 0.98425198 0.078740157
v  -0.98425198 0.98425198 1.968504
v  -0.9055118 0.98425198 1.968504
v  0.9055118 0.98425198 1.968504
v  -0.98425198 -0.98425198 0
v  -0.98425198 -0.98425198 1.968504
v  -0.9055118 0.5905512 0.078740157
v  0.11811024 -0.9055118 0.078740157
v  0.9055118 -0.9055118 0.078740157
v  0.9055118 -0.9055118 1.968504
v  0.11811024 -0.9055118 1.968504
v  -0.9055118 0.5905512 1.968504

# 35 UV coordinates
vt 0.2 0 0
vt -4.8000002 0 0
vt 0.2 -5 0
vt -4.8000002 -5 0
vt 4.8000002 5 0
vt -0.2 5 0
vt -0 4.8000002 0
vt -0.2 0 0
vt -0 0.2 0
vt 4.8000002 0 0
vt 4.8000002 0.2 0
vt 4.8000002 4.8000002 0
vt -0.2 -5 0
vt 4.8000002 -5 0
vt 0.2 5 0
vt -4.8000002 5 0
vt -2.3 2.5 0
vt -2.3 1.5 0
vt 2.3 2.5 0
vt 0.30000001 -2.3 0
vt 2.3 -2.3 0
vt -2.5 -2.5 0
vt 2.5 -2.5 0
vt -2.5 2.5 0
vt 2.5 2.5 0
vt -4.8000002 -4.8000002 0
vt 0 -4.8000002 0
vt -4.8000002 -6.4197667e-32 0
vt -0 0 0
vt -4.8000002 -2 0
vt -0 -2 0
vt 4.8000002 4.6043458 0
vt -0 4.6043458 0
vt 4.8000002 1 0
vt -0 1 0

# 9 vertex normals
vn 2.54 3.5249583e-16 0
vn 0 2.54 0
vn -2.54 -3.5249583e-16 0
vn 0 -2.54 0
vn 0 0 2.54
vn 0 0 -2.54
vn -2.54 -3.6718314e-16 0
vn 2.0962803 1.4342972 0
vn 2.54 -8.8123953e-16 0

# Mesh '보스-돌출2' with 32 faces
g 보스-돌출2
usemtl Material #25
f  1/1/1 2/2/1 3/3/1
f  3/3/1 2/2/1 4/4/1
f  2/5/2 1/6/2 5/7/2
f  5/7/2 1/6/2 6/8/2
f  5/7/2 6/8/2 7/9/2
f  7/9/2 6/8/2 8/10/2
f  7/9/2 8/10/2 9/11/2
f  5/7/2 10/12/2 2/5/2
f  11/13/3 12/14/3 6/8/3
f  6/8/3 12/14/3 8/10/3
f  3/15/4 4/16/4 11/1/4
f  11/1/4 4/16/4 12/2/4
f  7/17/5 13/18/5 5/19/5
f  5/19/5 13/18/5 14/20/5
f  5/19/5 14/20/5 15/21/5
f  3/22/6 11/23/6 1/24/6
f  1/24/6 11/23/6 6/25/6
f  15/26/7 16/27/7 5/28/7
f  5/28/7 16/27/7 10/29/7
f  14/30/2 17/31/2 15/2/2
f  15/2/2 17/31/2 16/29/2
f  13/32/8 18/33/8 14/10/8
f  14/10/8 18/33/8 17/29/8
f  7/34/9 9/35/9 13/10/9
f  13/10/9 9/35/9 18/29/9
f  10/19/5 16/21/5 2/25/5
f  2/25/5 16/21/5 4/23/5
f  4/23/5 16/21/5 17/20/5
f  4/23/5 17/20/5 12/22/5
f  12/22/5 17/20/5 18/18/5
f  12/22/5 18/18/5 8/24/5
f  8/24/5 18/18/5 9/17/5

