# File produced by Open Asset Import Library (http://www.assimp.sf.net)
# (assimp v5.0.0)

mtllib result.mtl

# 42 vertex positions
v  -0.066329241 1.7944757 0.98425198
v  -0.066329241 1.7944757 -0.98425198
v  -0.19685039 1.968504 0.98425198
v  -0.19685039 1.968504 -0.98425198
v  -0.98425198 1.968504 -0.98425198
v  -0.19685039 1.2125776 -0.98425198
v  -0.066329241 1.3197248 -0.98425198
v  -0.19685039 1.1079816 -0.98425198
v  -0.34695294 0.82480669 -0.98425198
v  -0.56379855 0.7023527 -0.98425198
v  -0.81577492 0.43796635 -0.98425198
v  -0.98425198 0.1201272 -0.98425198
v  -0.60409498 0.55750322 -0.98425198
v  -0.98425198 0.1201272 0.98425198
v  -0.98425198 1.968504 0.98425198
v  -0.066329241 1.3197248 0.98425198
v  -0.19685039 1.2125776 0.98425198
v  -0.81577492 0.43796635 0.98425198
v  -0.56379855 0.7023527 0.98425198
v  -0.34695294 0.82480669 0.98425198
v  -0.60409498 0.55750322 0.98425198
v  -0.19685039 1.1079816 0.98425198
v  0.98425198 0.39370078 -0.98425198
v  0.98425198 0.39370078 0.98425198
v  0.98425198 0 -0.98425198
v  0.98425198 0 0.98425198
v  -0.76788849 0 0.98425198
v  -0.76788849 0 -0.98425198
v  0.83045608 0.59876204 -0.98425198
v  0.83045608 0.59876204 0.98425198
v  0.15561859 0.52887625 0.98425198
v  0.27041921 0.75337517 0.98425198
v  -0.19685039 0.43796635 0.98425198
v  -0.39032206 0.31203064 0.98425198
v  -0.60409498 0.18832886 0.98425198
v  -0.54083842 0.31203064 0.98425198
v  0.27041921 0.75337517 -0.98425198
v  0.15561859 0.52887625 -0.98425198
v  -0.19685039 0.43796635 -0.98425198
v  -0.39032206 0.31203064 -0.98425198
v  -0.60409498 0.18832886 -0.98425198
v  -0.54083842 0.31203064 -0.98425198

# 90 UV coordinates
vt -5 -0.55253953 0
vt -0 -0.55253953 0
vt -5 0 0
vt -0 4.3298699e-16 0
vt -0 0 0
vt -2 0 0
vt -2 -1.9200529 0
vt -2.3315237 -0.44203165 0
vt -2.3315237 -1.6478989 0
vt -2 -2.1857269 0
vt -1.6187395 -2.9049909 0
vt -1.0679517 -3.2160242 0
vt -0.42793176 -3.8875654 0
vt -4.4408921e-16 -4.6948771 0
vt -0.9655987 -3.5839417 0
vt 5 -4.6948771 0
vt 5 0 0
vt 2.3315237 -1.6478989 0
vt 2.3315237 -0.44203165 0
vt 2 -1.9200529 0
vt 2 0 0
vt -0 -4.6948771 0
vt 0.42793176 -3.8875654 0
vt 1.0679517 -3.2160242 0
vt 1.6187395 -2.9049909 0
vt 0.9655987 -3.5839417 0
vt 2 -2.1857269 0
vt 2.5 -0.5 0
vt -2.5 -0.5 0
vt 2.5 -2.5 0
vt -2.5 -2.5 0
vt -5 -0.42892396 0
vt -0 -0.42892396 0
vt -5 1.2058673 0
vt -0 1.2058673 0
vt -5 -0.9137162 0
vt -0 -0.9137162 0
vt -5 -0.61747313 0
vt -0 -0.61747313 0
vt -5 -0.38188946 0
vt -0 -0.38188946 0
vt -5 -0.63254154 0
vt -0 -0.63254154 0
vt -5 -0.81406409 0
vt -0 -0.81406409 0
vt -5 -0.26567411 0
vt -0 -0.26567411 0
vt -6.1629758e-32 -4 0
vt -5 -4 0
vt -0 -5 0
vt -5 -5 0
vt -2.5 -1.9504368 0
vt 2.5 -1.9504368 0
vt -2.5 2.5 0
vt 2.5 2.5 0
vt -0 -4.3489308 0
vt -5 -4.3489308 0
vt 5 -5 0
vt 5 -4 0
vt 2.8952713 -3.6566544 0
vt 4.6093583 -3.4791446 0
vt 3.1868649 -3.086427 0
vt 2 -3.8875654 0
vt 1.508582 -4.2074423 0
vt 0.54956323 -5 0
vt 0.9655987 -4.5216446 0
vt 1.1262704 -4.2074423 0
vt -3.1868649 -3.086427 0
vt -4.6093583 -3.4791446 0
vt -2.8952713 -3.6566544 0
vt -2 -3.8875654 0
vt -1.508582 -4.2074423 0
vt -0.54956323 -5 0
vt -0.9655987 -4.5216446 0
vt -1.1262704 -4.2074423 0
vt 5 1.0334228e-15 0
vt 5 -1.4757084 0
vt -0 -1.4757084 0
vt 5 -0.63396317 0
vt 0 -0.63396317 0
vt 5 -0.35290033 0
vt 0 -0.35290033 0
vt 5 -0.38231152 0
vt -0 -0.38231152 0
vt 5 -0.58635551 0
vt 0 -0.58635551 0
vt 5 -0.92457044 0
vt 0 -0.92457044 0
vt 5 -0.64045769 0
vt 0 -0.64045769 0

# 18 vertex normals
vn 2.0320001 1.524 0
vn 0 0 -2.54
vn -2.54 0 3.5249583e-16
vn 0 0 2.54
vn 0 2.54 0
vn 1.6116401 -1.9632157 0
vn 2.54 3.1972201e-16 0
vn 2.24421 -1.1895889 0
vn 1.2489679 -2.211714 0
vn 2.4470718 -0.68076432 0
vn 2.54 0 0
vn 2.54 0 -3.5249583e-16
vn 0 -2.54 0
vn 0.6759482 2.4484065 0
vn -1.9165505 1.6668636 0
vn -2.2614727 1.1564349 0
vn -1.3856556 2.1287458 0
vn -0.63436401 2.4595087 0

# Mesh '컷-돌출2[1]' with 40 faces
g 컷-돌출2[1]
usemtl Material #25
f  1/1/1 2/2/1 3/3/1
f  3/3/1 2/2/1 4/4/1
f  5/5/2 4/6/2 6/7/2
f  6/7/2 4/6/2 2/8/2
f  6/7/2 2/8/2 7/9/2
f  8/10/2 9/11/2 6/7/2
f  6/7/2 9/11/2 5/5/2
f  9/11/2 10/12/2 5/5/2
f  5/5/2 10/12/2 11/13/2
f  5/5/2 11/13/2 12/14/2
f  10/12/2 13/15/2 11/13/2
f  12/14/3 14/16/3 5/5/3
f  5/5/3 14/16/3 15/17/3
f  16/18/4 1/19/4 17/20/4
f  17/20/4 1/19/4 3/21/4
f  17/20/4 3/21/4 15/5/4
f  14/22/4 18/23/4 15/5/4
f  15/5/4 18/23/4 19/24/4
f  15/5/4 19/24/4 20/25/4
f  18/23/4 21/26/4 19/24/4
f  22/27/4 17/20/4 20/25/4
f  20/25/4 17/20/4 15/5/4
f  3/28/5 4/29/5 15/30/5
f  15/30/5 4/29/5 5/31/5
f  17/32/6 6/33/6 16/3/6
f  16/3/6 6/33/6 7/5/6
f  16/3/7 7/5/7 1/34/7
f  1/34/7 7/5/7 2/35/7
f  14/36/8 12/37/8 18/3/8
f  18/3/8 12/37/8 11/5/8
f  18/38/9 11/39/9 21/3/9
f  21/3/9 11/39/9 13/5/9
f  21/40/10 13/41/10 19/3/10
f  19/3/10 13/41/10 10/5/10
f  19/42/9 10/43/9 20/3/9
f  20/3/9 10/43/9 9/5/9
f  20/44/8 9/45/8 22/3/8
f  22/3/8 9/45/8 8/5/8
f  22/46/11 8/47/11 17/3/11
f  17/3/11 8/47/11 6/5/11

# Mesh '컷-돌출2[2]' with 36 faces
g 컷-돌출2[2]
usemtl Material #25
f  23/48/12 24/49/12 25/50/12
f  25/50/12 24/49/12 26/51/12
f  27/52/13 28/53/13 26/54/13
f  26/54/13 28/53/13 25/55/13
f  29/56/1 30/57/1 23/50/1
f  23/50/1 30/57/1 24/51/1
f  26/58/4 24/59/4 31/60/4
f  31/60/4 24/59/4 30/61/4
f  31/60/4 30/61/4 32/62/4
f  31/60/4 33/63/4 26/58/4
f  26/58/4 33/63/4 34/64/4
f  26/58/4 34/64/4 27/65/4
f  27/65/4 34/64/4 35/66/4
f  35/66/4 34/64/4 36/67/4
f  37/68/2 29/69/2 38/70/2
f  38/70/2 29/69/2 25/51/2
f  38/70/2 25/51/2 39/71/2
f  39/71/2 25/51/2 40/72/2
f  40/72/2 25/51/2 28/73/2
f  40/72/2 28/73/2 41/74/2
f  29/69/2 23/49/2 25/51/2
f  41/74/2 42/75/2 40/72/2
f  30/76/14 29/5/14 32/77/14
f  32/77/14 29/5/14 37/78/14
f  35/17/15 41/5/15 27/79/15
f  27/79/15 41/5/15 28/80/15
f  36/17/16 42/5/16 35/81/16
f  35/81/16 42/5/16 41/82/16
f  34/17/5 40/5/5 36/83/5
f  36/83/5 40/5/5 42/84/5
f  33/17/17 39/5/17 34/85/17
f  34/85/17 39/5/17 40/86/17
f  31/17/18 38/5/18 33/87/18
f  33/87/18 38/5/18 39/88/18
f  32/17/16 37/5/16 31/89/16
f  31/89/16 37/5/16 38/90/16

